# xmcd CD database file
#
# Track frame offsets:
#	150
#	17937
#	36324
#	62493
#	90387
#	111809
#	128588
#	161156
#	183196
#	201465
#
# Disc length: 2954 seconds
#
# Revision: 3
# Processed by: cddbd v1.5.2PL0 Copyright (c) Steve Scherf et al.
# Submitted via: CDex 1.51
#
DISCID=820b880a
DTITLE=Myriam Alter - If
DYEAR=2002
DGENRE=Jazz
TTITLE0=Waking Up
TTITLE1=Home
TTITLE2=If
TTITLE3=I think of it
TTITLE4=It's all there
TTITLE5=Children play
TTITLE6=An intrigant melody
TTITLE7=Moving somewhere
TTITLE8=You should stay
TTITLE9=Where you belong
EXTD=YEAR: 2002
EXTT0=
EXTT1=
EXTT2=
EXTT3=
EXTT4=
EXTT5=
EXTT6=
EXTT7=
EXTT8=
EXTT9=
PLAYORDER=
